<?xml version="1.0" encoding="utf-8"?>
<!-- Generator: Adobe Illustrator 16.0.0, SVG Export Plug-In . SVG Version: 6.00 Build 0)  -->
<svg version="1.2" baseProfile="tiny" id="Layer_1" xmlns="http://www.w3.org/2000/svg" xmlns:xlink="http://www.w3.org/1999/xlink"
	 x="0px" y="0px" width="60px" height="60px" viewBox="0 0 60 60" xml:space="preserve">
<circle fill-rule="evenodd" fill="none" stroke="#EAEAEA" stroke-linecap="round" stroke-linejoin="round" stroke-miterlimit="10" cx="30" cy="30" r="29.5"/>
<path fill-rule="evenodd" fill="#EAEAEA" d="M21,18l-3,3c-0.83,0.83-0.79,2.21,0.07,3.07L24,30l-5.93,5.93
	c-0.86,0.86-0.9,2.24-0.07,3.07l3,3c0.83,0.83,2.21,0.79,3.07-0.07L30,36l5.93,5.93c0.86,0.86,2.24,0.9,3.07,0.07l3-3
	c0.83-0.83,0.79-2.21-0.07-3.07L36,30l5.93-5.93c0.86-0.86,0.9-2.24,0.07-3.07l-3-3c-0.83-0.83-2.21-0.79-3.07,0.07L30,24
	l-5.93-5.93C23.21,17.21,21.83,17.17,21,18z"/>
</svg>
