<?xml version="1.0" encoding="utf-8"?>
<!-- Generator: Adobe Illustrator 16.0.0, SVG Export Plug-In . SVG Version: 6.00 Build 0)  -->
<svg version="1.2" baseProfile="tiny" id="Layer_1" xmlns="http://www.w3.org/2000/svg" xmlns:xlink="http://www.w3.org/1999/xlink"
	 x="0px" y="0px" width="45px" height="45px" viewBox="0 0 45 45" xml:space="preserve">
<path fill-rule="evenodd" fill="#FFFFFF" d="M0,22.5C0,10.07,10.07,0,22.5,0S45,10.07,45,22.5S34.93,45,22.5,45S0,34.93,0,22.5z"/>
<circle fill-rule="evenodd" fill="#ED4264" cx="22.5" cy="22.5" r="20.5"/>
<g>
	<path fill-rule="evenodd" fill="#FFFFFF" d="M22.5,17.58c-2.71,0-4.92,2.21-4.92,4.92s2.21,4.92,4.92,4.92s4.92-2.21,4.92-4.92
		S25.21,17.58,22.5,17.58z M22.5,28.95c-3.56,0-6.45-2.89-6.45-6.45s2.89-6.45,6.45-6.45s6.45,2.89,6.45,6.45
		S26.06,28.95,22.5,28.95z M17.71,29.96l0.48,0.27c0.59,0.33,1.23,0.59,1.9,0.78l0.52,0.15l0.03,0.54c0.06,0.99,0.87,1.77,1.86,1.77
		s1.8-0.78,1.86-1.77l0.03-0.54l0.52-0.15c0.67-0.19,1.31-0.45,1.9-0.78l0.48-0.27l0.41,0.36c0.71,0.64,1.88,0.61,2.56-0.06
		c0.69-0.7,0.72-1.83,0.06-2.57l-0.36-0.4l0.27-0.48c0.33-0.59,0.59-1.23,0.78-1.9l0.15-0.52l0.54-0.03c1-0.06,1.77-0.87,1.77-1.86
		s-0.77-1.8-1.77-1.86l-0.54-0.03l-0.15-0.52c-0.19-0.67-0.45-1.31-0.78-1.9l-0.27-0.48l0.36-0.41c0.66-0.74,0.63-1.86-0.06-2.56
		c-0.68-0.67-1.85-0.7-2.57-0.06l-0.4,0.36l-0.48-0.27c-0.59-0.33-1.23-0.59-1.9-0.78l-0.52-0.15l-0.03-0.54
		c-0.06-1-0.87-1.77-1.86-1.77s-1.8,0.77-1.86,1.77l-0.03,0.54l-0.52,0.15c-0.67,0.19-1.31,0.45-1.9,0.78l-0.48,0.27l-0.4-0.36
		c-0.72-0.64-1.89-0.61-2.57,0.06c-0.69,0.7-0.72,1.82-0.06,2.56l0.36,0.41l-0.27,0.48c-0.33,0.59-0.59,1.23-0.78,1.9l-0.15,0.52
		l-0.54,0.03c-0.99,0.06-1.77,0.87-1.77,1.86s0.78,1.8,1.77,1.86l0.54,0.03l0.15,0.52c0.19,0.67,0.45,1.31,0.78,1.9l0.27,0.48
		l-0.36,0.41c-0.66,0.73-0.63,1.86,0.06,2.56c0.68,0.68,1.85,0.7,2.57,0.06L17.71,29.96z M22.5,35c-1.61,0-2.97-1.13-3.31-2.67
		c-0.45-0.15-0.88-0.33-1.3-0.54c-0.55,0.35-1.18,0.54-1.84,0.54c-0.9,0-1.75-0.35-2.39-0.99c-1.14-1.14-1.3-2.9-0.45-4.23
		c-0.21-0.41-0.39-0.85-0.54-1.3C11.13,25.47,10,24.11,10,22.5s1.13-2.97,2.67-3.31c0.15-0.45,0.33-0.89,0.54-1.3
		c-0.85-1.33-0.69-3.09,0.45-4.23c0.64-0.64,1.49-0.99,2.39-0.99c0.66,0,1.29,0.19,1.84,0.54c0.42-0.21,0.85-0.39,1.3-0.54
		c0.34-1.54,1.7-2.67,3.31-2.67s2.97,1.13,3.31,2.67c0.45,0.15,0.89,0.33,1.3,0.54c0.55-0.35,1.18-0.54,1.84-0.54
		c0.9,0,1.75,0.35,2.39,0.99c1.14,1.14,1.3,2.9,0.46,4.23c0.2,0.41,0.38,0.85,0.53,1.3c1.54,0.34,2.67,1.7,2.67,3.31
		s-1.13,2.97-2.67,3.31c-0.15,0.45-0.33,0.89-0.53,1.3c0.84,1.33,0.68,3.09-0.46,4.23c-0.64,0.64-1.49,0.99-2.39,0.99
		c-0.66,0-1.29-0.19-1.84-0.54c-0.41,0.21-0.85,0.39-1.3,0.54C25.47,33.87,24.11,35,22.5,35z"/>
</g>
</svg>
